<?xml version="1.0" encoding="UTF-8" ?>
<!DOCTYPE svg PUBLIC "-//W3C//DTD SVG 1.1//EN" "http://www.w3.org/Graphics/SVG/1.1/DTD/svg11.dtd">
<svg width="1668pt" height="302pt" viewBox="0 0 1668 302" version="1.1" xmlns="http://www.w3.org/2000/svg">
<g id="#04dfffff">
<path fill="#04dfff" opacity="1.00" d=" M 73.89 27.81 C 89.67 16.84 107.48 8.85 126.07 4.02 C 137.44 10.58 148.76 17.22 160.15 23.73 C 137.75 19.76 114.26 24.31 94.55 35.50 C 59.00 54.85 39.55 98.63 47.26 138.10 C 51.97 162.51 65.78 185.48 86.39 199.68 C 105.35 212.87 128.88 219.63 151.96 217.43 C 175.85 215.14 199.01 204.07 215.33 186.40 C 231.54 168.38 241.04 144.29 240.98 120.00 C 241.09 97.62 232.87 75.57 219.19 57.98 C 247.65 74.48 276.09 91.02 304.59 107.46 C 313.07 136.13 312.37 167.41 302.78 195.71 C 293.25 223.98 275.89 249.99 251.64 267.66 C 225.79 286.48 194.05 297.58 161.98 297.47 C 128.64 297.74 95.60 285.95 69.14 265.85 C 44.99 247.44 28.02 220.69 19.02 191.89 C 9.10 160.08 10.59 124.90 23.02 93.99 C 33.31 67.75 50.58 43.92 73.89 27.81 Z" />
<path fill="#04dfff" opacity="1.00" d=" M 104.39 53.53 C 106.46 52.83 108.82 53.12 110.70 54.22 C 145.43 73.18 180.14 92.20 214.87 111.16 C 216.64 112.20 218.81 113.64 218.69 115.98 C 218.64 118.28 216.70 119.97 214.82 121.00 C 180.15 140.05 145.45 159.05 110.79 178.10 C 108.78 179.31 106.34 179.83 104.05 179.20 C 101.43 177.92 100.50 174.76 100.59 172.05 C 100.62 134.69 100.58 97.33 100.61 59.97 C 100.52 57.37 101.91 54.57 104.39 53.53 Z" />
</g>
<g id="#ffffffff">
<path fill="#ffffff" opacity="1.00" d=" M 440.09 57.62 C 463.56 53.92 488.91 57.51 508.82 71.07 C 523.60 80.79 535.05 95.18 541.68 111.54 C 544.70 118.85 547.15 126.43 548.78 134.18 C 529.87 135.37 510.97 136.72 492.06 137.91 C 489.20 129.38 484.79 120.95 477.47 115.43 C 468.60 108.69 456.55 107.40 445.94 109.95 C 432.84 113.04 422.41 124.08 418.89 136.91 C 416.68 145.02 416.54 153.72 418.54 161.90 C 421.06 172.19 428.08 181.30 437.44 186.28 C 445.81 190.68 455.75 191.26 464.92 189.46 C 473.03 187.85 480.51 183.18 485.31 176.43 C 490.58 169.24 492.84 160.34 493.75 151.61 C 512.25 152.07 530.74 152.58 549.23 153.03 C 546.62 173.68 540.24 194.47 527.19 211.01 C 515.75 225.78 499.06 236.29 480.83 240.34 C 464.50 243.95 447.29 244.04 431.02 240.08 C 406.96 234.26 386.12 217.57 374.01 196.13 C 363.29 177.09 360.71 154.25 364.11 132.88 C 369.98 95.06 402.31 63.28 440.09 57.62 Z" />
<path fill="#ffffff" opacity="1.00" d=" M 1167.15 64.95 C 1188.23 53.61 1215.57 52.82 1236.13 65.75 C 1250.27 74.71 1261.06 89.27 1264.21 105.84 C 1266.58 118.55 1265.96 132.08 1261.15 144.17 C 1256.44 155.75 1247.63 165.92 1236.14 171.12 C 1223.40 176.99 1209.05 177.68 1195.25 177.10 C 1195.24 161.55 1195.27 145.99 1195.24 130.44 C 1199.14 130.27 1203.29 129.94 1206.66 127.73 C 1213.52 123.28 1212.88 110.12 1204.46 107.79 C 1199.97 106.63 1194.52 106.55 1190.87 109.82 C 1187.55 112.89 1186.83 117.68 1186.75 121.97 C 1186.74 160.86 1186.75 199.74 1186.75 238.63 C 1169.07 238.59 1151.40 238.68 1133.73 238.58 C 1133.77 207.07 1133.74 175.56 1133.75 144.04 C 1133.88 129.99 1132.92 115.67 1136.52 101.93 C 1140.75 85.91 1152.60 72.54 1167.15 64.95 Z" />
<path fill="#ffffff" opacity="1.00" d=" M 786.00 60.75 C 802.29 60.75 818.58 60.75 834.87 60.75 C 834.88 91.15 834.87 121.54 834.87 151.94 C 834.74 164.95 835.68 178.19 832.41 190.94 C 829.11 204.96 821.23 218.01 809.72 226.80 C 795.17 238.02 776.12 243.17 757.90 240.59 C 740.70 238.70 724.70 229.53 713.79 216.19 C 694.84 193.87 693.86 158.55 711.14 135.00 C 720.56 122.06 734.08 111.61 749.84 107.87 C 759.28 105.42 769.13 105.86 778.75 106.79 C 778.76 124.72 778.72 142.64 778.77 160.57 C 774.25 157.21 768.50 154.82 762.81 156.30 C 751.82 158.53 745.03 171.89 749.96 182.04 C 754.48 192.38 768.81 196.43 778.02 189.91 C 784.39 185.11 785.76 176.48 785.99 169.02 C 786.01 132.93 785.99 96.84 786.00 60.75 Z" />
<path fill="#ffffff" opacity="1.00" d=" M 1277.00 60.75 C 1293.26 60.80 1309.53 60.64 1325.79 60.83 C 1325.69 120.09 1325.78 179.36 1325.75 238.63 C 1309.52 238.65 1293.29 238.57 1277.06 238.67 C 1276.92 179.36 1277.04 120.06 1277.00 60.75 Z" />
<path fill="#ffffff" opacity="1.00" d=" M 613.55 106.73 C 628.81 104.47 645.06 106.54 658.45 114.52 C 674.82 124.28 687.65 140.69 691.24 159.60 C 693.37 170.95 692.97 182.86 689.58 193.92 C 684.84 209.42 673.81 222.57 660.25 231.23 C 647.19 239.58 631.14 242.45 615.85 240.74 C 586.09 237.82 559.99 212.59 556.41 182.85 C 554.54 167.84 556.98 152.00 564.95 138.99 C 575.38 121.82 593.54 109.40 613.55 106.73 M 619.50 154.63 C 611.35 156.70 605.32 164.78 605.43 173.17 C 605.09 180.95 609.99 188.50 617.07 191.61 C 623.39 194.34 631.25 193.06 636.31 188.36 C 644.47 181.52 645.22 167.85 637.86 160.17 C 633.43 154.99 626.03 152.97 619.50 154.63 Z" />
<path fill="#ffffff" opacity="1.00" d=" M 898.16 107.65 C 910.23 104.94 923.01 105.05 934.94 108.39 C 951.81 113.11 966.18 125.30 974.48 140.61 C 981.19 153.03 983.03 167.60 981.47 181.50 C 956.80 181.50 932.12 181.51 907.45 181.50 C 905.08 173.97 905.35 165.74 908.13 158.37 C 916.40 158.39 924.66 158.37 932.93 158.38 C 931.97 153.69 929.94 148.77 925.62 146.25 C 919.09 142.57 910.17 143.47 904.68 148.66 C 898.86 154.11 896.38 162.23 896.19 170.03 C 895.95 178.16 897.42 186.86 902.73 193.31 C 905.89 197.32 910.86 199.91 916.02 199.78 C 921.67 199.90 926.52 196.36 930.27 192.47 C 939.51 203.66 948.93 214.72 958.06 226.01 C 948.21 233.64 936.52 239.08 924.09 240.61 C 906.84 242.79 888.50 239.14 874.37 228.71 C 861.51 219.41 851.70 205.64 848.31 190.04 C 844.83 173.84 846.33 156.21 854.27 141.50 C 863.39 124.85 879.53 111.88 898.16 107.65 Z" />
<path fill="#ffffff" opacity="1.00" d=" M 1015.00 118.03 C 1028.96 106.04 1048.81 103.89 1066.31 107.43 C 1066.17 124.80 1066.28 142.18 1066.26 159.55 C 1061.52 156.88 1055.35 155.31 1050.42 158.37 C 1045.29 161.70 1044.08 168.34 1043.78 174.01 C 1043.71 195.55 1043.77 217.09 1043.75 238.63 C 1027.49 238.65 1011.24 238.57 994.99 238.67 C 994.73 214.11 994.93 189.54 994.89 164.99 C 995.04 147.55 1001.26 129.40 1015.00 118.03 Z" />
<path fill="#ffffff" opacity="1.00" d=" M 1352.91 134.02 C 1363.57 119.44 1379.99 108.84 1398.08 106.68 C 1418.20 104.29 1440.38 108.18 1455.68 122.31 C 1469.60 134.73 1475.84 153.72 1476.00 172.00 C 1475.97 194.22 1476.06 216.44 1475.95 238.66 C 1459.72 238.58 1443.48 238.64 1427.25 238.63 C 1427.24 218.43 1427.26 198.24 1427.24 178.05 C 1427.20 171.87 1425.61 165.31 1421.14 160.80 C 1415.80 155.25 1406.67 154.45 1400.07 158.09 C 1396.53 160.06 1393.60 163.10 1391.79 166.71 C 1388.04 174.42 1390.13 184.76 1397.22 189.84 C 1403.77 194.69 1413.02 193.81 1419.78 189.82 C 1419.67 206.67 1419.84 223.52 1419.70 240.37 C 1401.23 243.37 1381.28 239.31 1366.38 227.71 C 1353.79 218.14 1344.59 204.02 1341.73 188.40 C 1338.14 169.79 1341.33 149.36 1352.91 134.02 Z" />
<path fill="#ffffff" opacity="1.00" d=" M 1496.00 108.62 C 1512.22 108.58 1528.44 108.70 1544.65 108.56 C 1544.87 130.37 1544.69 152.18 1544.74 173.99 C 1544.80 178.16 1544.33 182.75 1546.69 186.43 C 1549.10 190.13 1554.39 190.84 1558.26 189.25 C 1562.17 187.55 1563.36 182.86 1563.48 178.98 C 1563.52 155.53 1563.48 132.08 1563.50 108.62 C 1579.79 108.63 1596.08 108.62 1612.37 108.63 C 1612.38 147.75 1612.37 186.88 1612.38 226.01 C 1612.29 242.78 1607.90 260.05 1597.28 273.33 C 1586.92 286.30 1572.29 296.21 1555.84 299.34 C 1542.06 302.11 1527.55 300.66 1514.49 295.52 C 1514.50 281.36 1514.50 267.20 1514.49 253.04 C 1520.98 255.67 1527.95 257.85 1535.05 257.08 C 1541.96 256.60 1548.78 253.65 1553.46 248.46 C 1558.00 243.58 1560.61 237.28 1562.44 230.95 C 1552.87 236.23 1541.82 239.64 1530.82 237.71 C 1514.85 235.57 1502.27 222.14 1498.15 207.02 C 1495.36 197.95 1496.07 188.37 1496.00 179.02 C 1496.00 155.56 1496.00 132.09 1496.00 108.62 Z" />
</g>
</svg>
